<svg width="900" height="900" viewBox="0 0 900 900" fill="none" xmlns="http://www.w3.org/2000/svg">
<g clip-path="url(#clip0_5_127)" filter="url(#filter0_d_5_127)">
<rect width="375" height="812" transform="translate(44 44)" fill="#E9E9E9"/>
<rect x="44" y="96" width="375" height="627" fill="#007AFF"/>
<rect width="375" height="52" transform="translate(44 44)" fill="white"/>
<path d="M81.6641 70.6436C79.5244 70.6436 78 72.1064 78 74.1094V74.123C78 75.9961 79.3262 77.377 81.2197 77.377C82.5732 77.377 83.4346 76.6865 83.7969 75.9072H83.9336C83.9336 75.9824 83.9268 76.0576 83.9268 76.1328C83.8516 78.0195 83.1885 79.5508 81.623 79.5508C80.7549 79.5508 80.1465 79.0996 79.8867 78.4092L79.8662 78.3408H78.1299L78.1436 78.416C78.458 79.9268 79.8115 81 81.623 81C84.1045 81 85.6016 79.0312 85.6016 75.709V75.6953C85.6016 72.1406 83.7695 70.6436 81.6641 70.6436ZM81.6572 76.0234C80.5361 76.0234 79.7227 75.2031 79.7227 74.0615V74.0479C79.7227 72.9473 80.5908 72.0791 81.6777 72.0791C82.7715 72.0791 83.626 72.9609 83.626 74.0889V74.1025C83.626 75.2168 82.7715 76.0234 81.6572 76.0234Z" fill="black"/>
<path d="M88.4251 74.3623C89.054 74.3623 89.512 73.8838 89.512 73.2822C89.512 72.6738 89.054 72.2021 88.4251 72.2021C87.803 72.2021 87.3382 72.6738 87.3382 73.2822C87.3382 73.8838 87.803 74.3623 88.4251 74.3623ZM88.4251 79.4346C89.054 79.4346 89.512 78.9629 89.512 78.3545C89.512 77.7461 89.054 77.2744 88.4251 77.2744C87.803 77.2744 87.3382 77.7461 87.3382 78.3545C87.3382 78.9629 87.803 79.4346 88.4251 79.4346Z" fill="black"/>
<path d="M96.0337 80.7539H97.7222V78.8604H99.0484V77.4043H97.7222V70.8896H95.2271C93.8873 72.9268 92.4859 75.1963 91.2076 77.418V78.8604H96.0337V80.7539ZM92.8482 77.4453V77.3428C93.8052 75.668 94.9468 73.8428 95.9586 72.2979H96.0611V77.4453H92.8482Z" fill="black"/>
<path d="M102.856 80.7539H104.62V70.8896H102.863L100.286 72.7012V74.3623L102.74 72.626H102.856V80.7539Z" fill="black"/>
<path fill-rule="evenodd" clip-rule="evenodd" d="M354.4 69.6666H353.4C352.847 69.6666 352.4 70.1143 352.4 70.6666V79.3333C352.4 79.8856 352.847 80.3333 353.4 80.3333H354.4C354.952 80.3333 355.4 79.8856 355.4 79.3333V70.6666C355.4 70.1143 354.952 69.6666 354.4 69.6666ZM348.733 71.9999H349.733C350.285 71.9999 350.733 72.4476 350.733 72.9999V79.3333C350.733 79.8855 350.285 80.3333 349.733 80.3333H348.733C348.181 80.3333 347.733 79.8855 347.733 79.3333V72.9999C347.733 72.4476 348.181 71.9999 348.733 71.9999ZM345.066 74.3334H344.066C343.514 74.3334 343.066 74.7811 343.066 75.3334V79.3334C343.066 79.8857 343.514 80.3334 344.066 80.3334H345.066C345.619 80.3334 346.066 79.8857 346.066 79.3334V75.3334C346.066 74.7811 345.619 74.3334 345.066 74.3334ZM340.4 76.3334H339.4C338.847 76.3334 338.4 76.7811 338.4 77.3334V79.3334C338.4 79.8857 338.847 80.3334 339.4 80.3334H340.4C340.952 80.3334 341.4 79.8857 341.4 79.3334V77.3334C341.4 76.7811 340.952 76.3334 340.4 76.3334Z" fill="black"/>
<path fill-rule="evenodd" clip-rule="evenodd" d="M368.036 71.7946C370.252 71.7947 372.383 72.6461 373.989 74.1729C374.11 74.2908 374.303 74.2893 374.423 74.1696L375.579 73.0029C375.639 72.9422 375.672 72.86 375.672 72.7744C375.671 72.6888 375.637 72.6069 375.576 72.5469C371.361 68.5074 364.711 68.5074 360.496 72.5469C360.435 72.6069 360.4 72.6887 360.4 72.7743C360.399 72.8599 360.433 72.9422 360.493 73.0029L361.649 74.1696C361.768 74.2895 361.962 74.291 362.083 74.1729C363.689 72.646 365.82 71.7946 368.036 71.7946ZM368.036 75.5902C369.254 75.5901 370.428 76.0426 371.33 76.8598C371.452 76.9758 371.645 76.9733 371.764 76.8542L372.918 75.6875C372.979 75.6263 373.013 75.5433 373.012 75.457C373.011 75.3708 372.976 75.2884 372.914 75.2285C370.165 72.6721 365.909 72.6721 363.161 75.2285C363.099 75.2884 363.064 75.3708 363.063 75.4571C363.062 75.5434 363.096 75.6264 363.157 75.6875L364.311 76.8542C364.43 76.9733 364.623 76.9758 364.745 76.8598C365.646 76.0432 366.82 75.5907 368.036 75.5902ZM370.349 78.144C370.351 78.2305 370.317 78.3139 370.255 78.3745L368.258 80.3901C368.199 80.4494 368.12 80.4827 368.036 80.4827C367.953 80.4827 367.873 80.4494 367.815 80.3901L365.817 78.3745C365.755 78.3138 365.721 78.2304 365.723 78.1439C365.725 78.0574 365.762 77.9755 365.827 77.9175C367.102 76.8386 368.97 76.8386 370.246 77.9175C370.31 77.9755 370.348 78.0574 370.349 78.144Z" fill="black"/>
<path opacity="0.4" fill-rule="evenodd" clip-rule="evenodd" d="M383.339 70.3333H400.005C400.926 70.3333 401.672 71.0795 401.672 72V78C401.672 78.9205 400.926 79.6666 400.005 79.6666H383.339C382.418 79.6666 381.672 78.9205 381.672 78V72C381.672 71.0795 382.418 70.3333 383.339 70.3333ZM380.672 72C380.672 70.5272 381.866 69.3333 383.339 69.3333H400.005C401.478 69.3333 402.672 70.5272 402.672 72V78C402.672 79.4727 401.478 80.6666 400.005 80.6666H383.339C381.866 80.6666 380.672 79.4727 380.672 78V72ZM405 75C405 75.8732 404.477 76.6613 403.672 77V73C404.477 73.3388 405 74.1269 405 75Z" fill="black"/>
<rect x="382.672" y="71.3333" width="18" height="7.33333" rx="1.33333" fill="black"/>
<g opacity="0.6">
<g filter="url(#filter1_b_5_127)">
<rect width="375" height="133" transform="translate(44 723)" fill="#F8F8F8" fill-opacity="0.82"/>
<g filter="url(#filter2_bd_5_127)">
<path d="M58 745C58 743.142 58 742.213 57.8973 741.434C57.1884 736.049 52.9511 731.812 47.5663 731.103C46.7865 731 45.8577 731 44 731V775C45.8577 775 46.7865 775 47.5663 774.897C52.9511 774.188 57.1884 769.951 57.8973 764.566C58 763.787 58 762.858 58 761V745Z" fill="white" fill-opacity="0.65"/>
</g>
<g filter="url(#filter3_bd_5_127)">
<rect x="66" y="731" width="331" height="44" rx="12" fill="white" fill-opacity="0.65"/>
<path d="M88.0659 758.409C88.4468 758.409 88.6445 758.262 88.7837 757.852L89.7285 755.267H94.0498L94.9946 757.852C95.1338 758.262 95.3242 758.409 95.7051 758.409C96.0933 758.409 96.3423 758.175 96.3423 757.808C96.3423 757.684 96.3203 757.567 96.2617 757.413L92.8267 748.265C92.6582 747.818 92.3579 747.591 91.8892 747.591C91.4351 747.591 91.1274 747.811 90.9663 748.258L87.5312 757.42C87.4727 757.574 87.4507 757.691 87.4507 757.816C87.4507 758.182 87.6851 758.409 88.0659 758.409ZM90.0874 754.154L91.8672 749.224H91.9038L93.6836 754.154H90.0874ZM80.2656 758.387C80.5659 758.387 80.7637 758.233 80.8809 757.874L81.4888 756.08H84.3525L84.9604 757.874C85.0776 758.248 85.2754 758.387 85.583 758.387C85.9492 758.387 86.1982 758.16 86.1982 757.83C86.1982 757.684 86.1616 757.545 86.103 757.391L83.8252 751.341C83.6567 750.894 83.3491 750.66 82.917 750.66C82.4922 750.66 82.1846 750.88 82.0161 751.341L79.7383 757.391C79.6797 757.53 79.6577 757.677 79.6577 757.83C79.6577 758.167 79.8921 758.387 80.2656 758.387ZM81.811 755.128L82.8364 752.073H83.0049L84.0303 755.128H81.811Z" fill="black" fill-opacity="0.5"/>
<path d="M109.855 757.542C109.855 758.896 110.552 759.607 111.899 759.607H120.355C121.715 759.607 122.426 758.91 122.426 757.57V754.685C122.426 754.548 122.536 754.487 122.672 754.596C123.048 754.883 123.493 755.116 124.081 755.116C125.243 755.116 126.145 754.2 126.145 753.024C126.145 751.855 125.243 750.939 124.081 750.939C123.493 750.939 123.048 751.171 122.672 751.458C122.536 751.568 122.426 751.506 122.426 751.37V748.43C122.426 747.09 121.715 746.393 120.355 746.393H111.899C110.552 746.393 109.855 747.104 109.855 748.458V751.39C109.855 751.834 110.204 752.128 110.614 752.128C110.839 752.128 111.079 752.033 111.291 751.828C111.612 751.527 112.008 751.144 112.801 751.144C113.833 751.144 114.647 751.964 114.647 753.01C114.647 754.056 113.833 754.876 112.801 754.876C112.008 754.876 111.612 754.487 111.291 754.186C111.079 753.988 110.839 753.892 110.614 753.892C110.204 753.892 109.855 754.186 109.855 754.63V757.542Z" fill="black" fill-opacity="0.5"/>
<path d="M175.793 759.5H182.207C183.076 759.5 183.5 759.074 183.5 758.141V753.25C183.5 752.41 183.15 751.977 182.429 751.904V750.225C182.429 747.713 180.765 746.5 179 746.5C177.235 746.5 175.571 747.713 175.571 750.225V751.937C174.911 752.037 174.5 752.464 174.5 753.25V758.141C174.5 759.074 174.924 759.5 175.793 759.5ZM176.656 750.085C176.656 748.412 177.74 747.526 179 747.526C180.26 747.526 181.344 748.412 181.344 750.085V751.897L176.656 751.904V750.085Z" fill="black" fill-opacity="0.5"/>
<path d="M191.497 759.658C193.605 759.658 194.884 758.462 195.191 757.25L195.208 757.184H193.763L193.73 757.259C193.489 757.798 192.742 758.371 191.53 758.371C189.937 758.371 188.916 757.292 188.874 755.441H195.315V754.876C195.315 752.204 193.838 750.394 191.406 750.394C188.974 750.394 187.396 752.287 187.396 755.051V755.059C187.396 757.865 188.94 759.658 191.497 759.658ZM191.397 751.681C192.717 751.681 193.697 752.519 193.846 754.287H188.899C189.057 752.585 190.069 751.681 191.397 751.681ZM196.103 759.5H197.721L199.846 756.122H199.979L202.096 759.5H203.789L200.71 754.968L203.748 750.552H202.129L200.029 753.88H199.896L197.771 750.552H196.07L199.166 755.026L196.103 759.5ZM207.781 759.658C208.984 759.658 209.922 759.135 210.487 758.18H210.62V759.5H212.064V753.374C212.064 751.515 210.844 750.394 208.661 750.394C206.751 750.394 205.39 751.34 205.158 752.743L205.149 752.793H206.594L206.602 752.768C206.834 752.071 207.54 751.672 208.611 751.672C209.947 751.672 210.62 752.27 210.62 753.374V754.188L208.055 754.345C205.971 754.47 204.792 755.391 204.792 756.985V757.001C204.792 758.628 206.079 759.658 207.781 759.658ZM206.27 756.968V756.952C206.27 756.063 206.868 755.582 208.229 755.499L210.62 755.35V756.163C210.62 757.441 209.549 758.404 208.08 758.404C207.042 758.404 206.27 757.873 206.27 756.968ZM214.296 759.5H215.74V753.955C215.74 752.693 216.628 751.672 217.798 751.672C218.927 751.672 219.658 752.361 219.658 753.424V759.5H221.102V753.748C221.102 752.61 221.924 751.672 223.169 751.672C224.431 751.672 225.037 752.328 225.037 753.648V759.5H226.481V753.316C226.481 751.44 225.46 750.394 223.634 750.394C222.397 750.394 221.376 751.017 220.895 751.963H220.762C220.347 751.033 219.5 750.394 218.288 750.394C217.118 750.394 216.271 750.95 215.873 751.913H215.74V750.552H214.296V759.5ZM228.68 762.488H230.124V758.089H230.257C230.746 759.043 231.817 759.658 233.046 759.658C235.32 759.658 236.798 757.84 236.798 755.034V755.018C236.798 752.229 235.312 750.394 233.046 750.394C231.801 750.394 230.805 750.983 230.257 751.979H230.124V750.552H228.68V762.488ZM232.714 758.379C231.087 758.379 230.091 757.101 230.091 755.034V755.018C230.091 752.951 231.087 751.672 232.714 751.672C234.349 751.672 235.32 752.934 235.32 755.018V755.034C235.32 757.118 234.349 758.379 232.714 758.379ZM238.731 759.5H240.175V746.999H238.731V759.5ZM246.192 759.658C248.3 759.658 249.578 758.462 249.885 757.25L249.902 757.184H248.458L248.425 757.259C248.184 757.798 247.437 758.371 246.225 758.371C244.631 758.371 243.61 757.292 243.569 755.441H250.01V754.876C250.01 752.204 248.532 750.394 246.1 750.394C243.668 750.394 242.091 752.287 242.091 755.051V755.059C242.091 757.865 243.635 759.658 246.192 759.658ZM246.092 751.681C247.412 751.681 248.391 752.519 248.541 754.287H243.594C243.751 752.585 244.764 751.681 246.092 751.681ZM253.022 759.583C253.62 759.583 254.101 759.093 254.101 758.504C254.101 757.906 253.62 757.425 253.022 757.425C252.433 757.425 251.943 757.906 251.943 758.504C251.943 759.093 252.433 759.583 253.022 759.583ZM259.811 759.658C261.961 759.658 263.164 758.504 263.529 756.885L263.546 756.794L262.118 756.802L262.102 756.852C261.77 757.848 261.006 758.379 259.802 758.379C258.209 758.379 257.179 757.06 257.179 755.001V754.984C257.179 752.967 258.192 751.672 259.802 751.672C261.089 751.672 261.886 752.386 262.11 753.266L262.118 753.291H263.554L263.546 753.241C263.28 751.647 261.977 750.394 259.802 750.394C257.296 750.394 255.702 752.204 255.702 754.984V755.001C255.702 757.84 257.304 759.658 259.811 759.658ZM268.932 759.658C271.48 759.658 273.057 757.898 273.057 755.034V755.018C273.057 752.146 271.48 750.394 268.932 750.394C266.384 750.394 264.807 752.146 264.807 755.018V755.034C264.807 757.898 266.384 759.658 268.932 759.658ZM268.932 758.379C267.239 758.379 266.284 757.143 266.284 755.034V755.018C266.284 752.901 267.239 751.672 268.932 751.672C270.625 751.672 271.58 752.901 271.58 755.018V755.034C271.58 757.143 270.625 758.379 268.932 758.379ZM274.891 759.5H276.335V753.955C276.335 752.693 277.223 751.672 278.394 751.672C279.523 751.672 280.253 752.361 280.253 753.424V759.5H281.697V753.748C281.697 752.61 282.519 751.672 283.764 751.672C285.026 751.672 285.632 752.328 285.632 753.648V759.5H287.076V753.316C287.076 751.44 286.055 750.394 284.229 750.394C282.992 750.394 281.971 751.017 281.49 751.963H281.357C280.942 751.033 280.095 750.394 278.883 750.394C277.713 750.394 276.866 750.95 276.468 751.913H276.335V750.552H274.891V759.5Z" fill="black" fill-opacity="0.8"/>
<path d="M367 754.69C367 759.023 370.345 762.5 374.504 762.5C378.664 762.5 382 759.023 382 754.69C382 754.266 381.711 753.958 381.295 753.958C380.896 753.958 380.633 754.266 380.633 754.69C380.633 758.238 377.908 761.079 374.504 761.079C371.1 761.079 368.367 758.238 368.367 754.69C368.367 751.151 371.1 748.318 374.504 748.318C375.149 748.318 375.752 748.371 376.253 748.495L373.715 751.107C373.587 751.248 373.52 751.425 373.52 751.61C373.52 752.016 373.808 752.316 374.19 752.316C374.402 752.316 374.564 752.245 374.683 752.113L378.18 748.46C378.333 748.31 378.392 748.133 378.392 747.93C378.392 747.736 378.316 747.542 378.18 747.401L374.683 743.712C374.564 743.571 374.394 743.5 374.19 743.5C373.808 743.5 373.52 743.818 373.52 744.224C373.52 744.409 373.587 744.585 373.706 744.727L375.964 747.048C375.523 746.959 375.022 746.898 374.504 746.898C370.345 746.898 367 750.366 367 754.69Z" fill="black"/>
</g>
<path d="M67.1836 800.597C67.1836 800.853 67.2759 801.079 67.4707 801.273L75.6021 809.22C75.7764 809.405 76.002 809.497 76.2686 809.497C76.8018 809.497 77.2119 809.097 77.2119 808.564C77.2119 808.297 77.0991 808.072 76.9351 807.897L69.4702 800.597L76.9351 793.296C77.0991 793.122 77.2119 792.886 77.2119 792.629C77.2119 792.096 76.8018 791.696 76.2686 791.696C76.002 791.696 75.7764 791.789 75.6021 791.963L67.4707 799.92C67.2759 800.104 67.1836 800.34 67.1836 800.597Z" fill="#007AFF"/>
<path d="M158.827 800.597C158.827 800.34 158.724 800.104 158.529 799.92L150.408 791.963C150.224 791.789 149.998 791.696 149.731 791.696C149.208 791.696 148.798 792.096 148.798 792.629C148.798 792.886 148.901 793.122 149.065 793.296L156.53 800.597L149.065 807.897C148.901 808.072 148.798 808.297 148.798 808.564C148.798 809.097 149.208 809.497 149.731 809.497C149.998 809.497 150.224 809.405 150.408 809.22L158.529 801.273C158.724 801.079 158.827 800.853 158.827 800.597Z" fill="#007AFF"/>
<path d="M231.49 803.386C231.931 803.386 232.31 803.017 232.31 802.586V792.055L232.249 790.517L232.936 791.245L234.494 792.906C234.638 793.07 234.843 793.152 235.048 793.152C235.468 793.152 235.796 792.845 235.796 792.424C235.796 792.209 235.704 792.045 235.55 791.891L232.084 788.548C231.879 788.343 231.705 788.271 231.49 788.271C231.285 788.271 231.11 788.343 230.895 788.548L227.429 791.891C227.275 792.045 227.193 792.209 227.193 792.424C227.193 792.845 227.501 793.152 227.932 793.152C228.126 793.152 228.352 793.07 228.496 792.906L230.044 791.245L230.741 790.517L230.68 792.055V802.586C230.68 803.017 231.049 803.386 231.49 803.386ZM225.614 811.415H237.375C239.519 811.415 240.595 810.348 240.595 808.236V798.002C240.595 795.89 239.519 794.824 237.375 794.824H234.515V796.475H237.345C238.36 796.475 238.944 797.028 238.944 798.095V808.144C238.944 809.21 238.36 809.764 237.345 809.764H225.635C224.609 809.764 224.045 809.21 224.045 808.144V798.095C224.045 797.028 224.609 796.475 225.635 796.475H228.475V794.824H225.614C223.471 794.824 222.395 795.89 222.395 798.002V808.236C222.395 810.348 223.471 811.415 225.614 811.415Z" fill="#007AFF"/>
<path d="M299.108 808.41C299.108 809.251 299.662 809.579 300.267 809.579C300.615 809.579 300.913 809.374 301.302 809.138C302.43 808.369 303.825 807.897 305.25 807.908C306.727 807.918 308.193 808.461 309.341 809.569C309.792 809.979 310.121 810.112 310.5 810.112C310.869 810.112 311.208 809.979 311.648 809.569C312.797 808.472 314.263 807.918 315.75 807.908C317.175 807.897 318.56 808.369 319.688 809.138C320.077 809.374 320.375 809.579 320.733 809.579C321.328 809.579 321.882 809.251 321.882 808.41V794.496C321.882 794.321 321.872 794.178 321.759 794.003C320.846 792.414 318.529 791.071 315.709 791.071C313.474 791.071 311.536 791.963 310.5 793.224C309.464 791.963 307.516 791.071 305.291 791.071C302.461 791.071 300.144 792.414 299.231 794.003C299.128 794.178 299.108 794.321 299.108 794.496V808.41ZM300.759 807.539V794.731C301.589 793.532 303.394 792.722 305.291 792.722C307.239 792.722 308.941 793.542 309.669 794.793V807.713C308.624 806.882 306.993 806.257 305.291 806.257C303.507 806.257 301.846 806.759 300.759 807.539ZM311.32 807.713V794.793C312.048 793.542 313.761 792.722 315.709 792.722C317.596 792.722 319.4 793.532 320.231 794.731V807.539C319.144 806.759 317.483 806.257 315.709 806.257C313.997 806.257 312.366 806.882 311.32 807.713Z" fill="#007AFF"/>
<path d="M381.871 806.605H383.625V808.174C383.625 810.287 384.691 811.353 386.844 811.353H397.139C399.272 811.353 400.349 810.287 400.349 808.174V797.797C400.349 795.685 399.272 794.619 397.139 794.619H395.375V793.05C395.375 790.938 394.299 789.871 392.166 789.871H381.871C379.718 789.871 378.651 790.938 378.651 793.05V803.427C378.651 805.539 379.718 806.605 381.871 806.605ZM381.892 804.955C380.866 804.955 380.302 804.401 380.302 803.334V793.142C380.302 792.076 380.866 791.522 381.892 791.522H392.135C393.15 791.522 393.725 792.076 393.725 793.142V794.619H386.844C384.691 794.619 383.625 795.675 383.625 797.797V804.955H381.892ZM386.865 809.702C385.85 809.702 385.275 809.148 385.275 808.082V797.89C385.275 796.823 385.85 796.27 386.865 796.27H397.108C398.124 796.27 398.698 796.823 398.698 797.89V808.082C398.698 809.148 398.124 809.702 397.108 809.702H386.865Z" fill="#007AFF"/>
<rect x="164" y="843" width="135" height="5" rx="2.5" fill="black"/>
</g>
</g>
</g>
<g clip-path="url(#clip1_5_127)" filter="url(#filter4_d_5_127)">
<rect width="375" height="812" transform="translate(481 44)" fill="#E9E9E9"/>
<rect x="481" y="44" width="375" height="765" fill="#007AFF"/>
<g opacity="0.6">
<rect width="375" height="47" transform="translate(481 809)" fill="#9D9D9D"/>
<rect x="601" y="843" width="135" height="5" rx="2.5" fill="black"/>
</g>
<path d="M518.664 70.6436C516.524 70.6436 515 72.1064 515 74.1094V74.123C515 75.9961 516.326 77.377 518.22 77.377C519.573 77.377 520.435 76.6865 520.797 75.9072H520.934C520.934 75.9824 520.927 76.0576 520.927 76.1328C520.852 78.0195 520.188 79.5508 518.623 79.5508C517.755 79.5508 517.146 79.0996 516.887 78.4092L516.866 78.3408H515.13L515.144 78.416C515.458 79.9268 516.812 81 518.623 81C521.104 81 522.602 79.0312 522.602 75.709V75.6953C522.602 72.1406 520.77 70.6436 518.664 70.6436ZM518.657 76.0234C517.536 76.0234 516.723 75.2031 516.723 74.0615V74.0479C516.723 72.9473 517.591 72.0791 518.678 72.0791C519.771 72.0791 520.626 72.9609 520.626 74.0889V74.1025C520.626 75.2168 519.771 76.0234 518.657 76.0234Z" fill="white"/>
<path d="M525.425 74.3623C526.054 74.3623 526.512 73.8838 526.512 73.2822C526.512 72.6738 526.054 72.2021 525.425 72.2021C524.803 72.2021 524.338 72.6738 524.338 73.2822C524.338 73.8838 524.803 74.3623 525.425 74.3623ZM525.425 79.4346C526.054 79.4346 526.512 78.9629 526.512 78.3545C526.512 77.7461 526.054 77.2744 525.425 77.2744C524.803 77.2744 524.338 77.7461 524.338 78.3545C524.338 78.9629 524.803 79.4346 525.425 79.4346Z" fill="white"/>
<path d="M533.034 80.7539H534.722V78.8604H536.048V77.4043H534.722V70.8896H532.227C530.887 72.9268 529.486 75.1963 528.208 77.418V78.8604H533.034V80.7539ZM529.848 77.4453V77.3428C530.805 75.668 531.947 73.8428 532.959 72.2979H533.061V77.4453H529.848Z" fill="white"/>
<path d="M539.856 80.7539H541.62V70.8896H539.863L537.286 72.7012V74.3623L539.74 72.626H539.856V80.7539Z" fill="white"/>
<path fill-rule="evenodd" clip-rule="evenodd" d="M791.4 69.6666H790.4C789.847 69.6666 789.4 70.1143 789.4 70.6666V79.3333C789.4 79.8856 789.847 80.3333 790.4 80.3333H791.4C791.952 80.3333 792.4 79.8856 792.4 79.3333V70.6666C792.4 70.1143 791.952 69.6666 791.4 69.6666ZM785.733 71.9999H786.733C787.285 71.9999 787.733 72.4476 787.733 72.9999V79.3333C787.733 79.8855 787.285 80.3333 786.733 80.3333H785.733C785.181 80.3333 784.733 79.8855 784.733 79.3333V72.9999C784.733 72.4476 785.181 71.9999 785.733 71.9999ZM782.066 74.3334H781.066C780.514 74.3334 780.066 74.7811 780.066 75.3334V79.3334C780.066 79.8857 780.514 80.3334 781.066 80.3334H782.066C782.619 80.3334 783.066 79.8857 783.066 79.3334V75.3334C783.066 74.7811 782.619 74.3334 782.066 74.3334ZM777.4 76.3334H776.4C775.847 76.3334 775.4 76.7811 775.4 77.3334V79.3334C775.4 79.8857 775.847 80.3334 776.4 80.3334H777.4C777.952 80.3334 778.4 79.8857 778.4 79.3334V77.3334C778.4 76.7811 777.952 76.3334 777.4 76.3334Z" fill="white"/>
<path fill-rule="evenodd" clip-rule="evenodd" d="M805.036 71.7946C807.252 71.7947 809.383 72.6461 810.989 74.1729C811.11 74.2908 811.303 74.2893 811.423 74.1696L812.579 73.0029C812.639 72.9422 812.672 72.86 812.672 72.7744C812.671 72.6888 812.637 72.6069 812.576 72.5469C808.361 68.5074 801.711 68.5074 797.496 72.5469C797.435 72.6069 797.4 72.6887 797.4 72.7743C797.399 72.8599 797.433 72.9422 797.493 73.0029L798.649 74.1696C798.768 74.2895 798.962 74.291 799.083 74.1729C800.689 72.646 802.82 71.7946 805.036 71.7946ZM805.036 75.5902C806.254 75.5901 807.428 76.0426 808.33 76.8598C808.452 76.9758 808.645 76.9733 808.764 76.8542L809.918 75.6875C809.979 75.6263 810.013 75.5433 810.012 75.457C810.011 75.3708 809.976 75.2884 809.914 75.2285C807.165 72.6721 802.909 72.6721 800.161 75.2285C800.099 75.2884 800.064 75.3708 800.063 75.4571C800.062 75.5434 800.096 75.6264 800.157 75.6875L801.311 76.8542C801.43 76.9733 801.623 76.9758 801.745 76.8598C802.646 76.0432 803.82 75.5907 805.036 75.5902ZM807.349 78.144C807.351 78.2305 807.317 78.3139 807.255 78.3745L805.258 80.3901C805.199 80.4494 805.12 80.4827 805.036 80.4827C804.953 80.4827 804.873 80.4494 804.815 80.3901L802.817 78.3745C802.755 78.3138 802.721 78.2304 802.723 78.1439C802.725 78.0574 802.762 77.9755 802.827 77.9175C804.102 76.8386 805.97 76.8386 807.246 77.9175C807.31 77.9755 807.348 78.0574 807.349 78.144Z" fill="white"/>
<path opacity="0.4" fill-rule="evenodd" clip-rule="evenodd" d="M820.339 70.3333H837.005C837.926 70.3333 838.672 71.0795 838.672 72V78C838.672 78.9205 837.926 79.6666 837.005 79.6666H820.339C819.418 79.6666 818.672 78.9205 818.672 78V72C818.672 71.0795 819.418 70.3333 820.339 70.3333ZM817.672 72C817.672 70.5272 818.866 69.3333 820.339 69.3333H837.005C838.478 69.3333 839.672 70.5272 839.672 72V78C839.672 79.4727 838.478 80.6666 837.005 80.6666H820.339C818.866 80.6666 817.672 79.4727 817.672 78V72ZM842 75C842 75.8732 841.477 76.6613 840.672 77V73C841.477 73.3388 842 74.1269 842 75Z" fill="white"/>
<rect x="819.672" y="71.3333" width="18" height="7.33333" rx="1.33333" fill="white"/>
</g>
<path d="M210.438 874.131C210.347 873.324 209.972 872.699 209.312 872.256C208.653 871.807 207.824 871.582 206.824 871.582C206.108 871.582 205.489 871.696 204.966 871.923C204.443 872.145 204.037 872.452 203.747 872.844C203.463 873.23 203.321 873.67 203.321 874.165C203.321 874.58 203.418 874.937 203.611 875.239C203.81 875.54 204.068 875.793 204.386 875.997C204.71 876.196 205.057 876.364 205.426 876.5C205.795 876.631 206.151 876.739 206.491 876.824L208.196 877.267C208.753 877.403 209.324 877.588 209.909 877.821C210.494 878.054 211.037 878.361 211.537 878.741C212.037 879.122 212.44 879.594 212.747 880.156C213.06 880.719 213.216 881.392 213.216 882.176C213.216 883.165 212.96 884.043 212.449 884.81C211.943 885.577 211.207 886.182 210.241 886.625C209.281 887.068 208.119 887.29 206.756 887.29C205.449 887.29 204.318 887.082 203.364 886.668C202.409 886.253 201.662 885.665 201.122 884.903C200.582 884.136 200.284 883.227 200.227 882.176H202.869C202.92 882.807 203.125 883.332 203.483 883.753C203.847 884.168 204.31 884.477 204.872 884.682C205.44 884.881 206.062 884.98 206.739 884.98C207.483 884.98 208.145 884.864 208.724 884.631C209.31 884.392 209.77 884.062 210.105 883.642C210.44 883.216 210.608 882.719 210.608 882.151C210.608 881.634 210.46 881.21 210.165 880.881C209.875 880.551 209.48 880.278 208.98 880.062C208.486 879.847 207.926 879.656 207.301 879.491L205.239 878.929C203.841 878.548 202.733 877.989 201.915 877.25C201.102 876.511 200.696 875.534 200.696 874.318C200.696 873.312 200.969 872.435 201.514 871.685C202.06 870.935 202.798 870.352 203.73 869.938C204.662 869.517 205.713 869.307 206.884 869.307C208.065 869.307 209.108 869.514 210.011 869.929C210.92 870.344 211.636 870.915 212.159 871.642C212.682 872.364 212.955 873.193 212.977 874.131H210.438ZM219.392 887.29C218.562 887.29 217.812 887.136 217.142 886.83C216.472 886.517 215.94 886.065 215.548 885.474C215.162 884.884 214.969 884.159 214.969 883.301C214.969 882.562 215.111 881.955 215.395 881.477C215.679 881 216.062 880.622 216.545 880.344C217.028 880.065 217.568 879.855 218.165 879.713C218.761 879.571 219.369 879.463 219.989 879.389C220.773 879.298 221.409 879.224 221.898 879.168C222.386 879.105 222.741 879.006 222.963 878.869C223.185 878.733 223.295 878.511 223.295 878.205V878.145C223.295 877.401 223.085 876.824 222.665 876.415C222.25 876.006 221.631 875.801 220.807 875.801C219.949 875.801 219.273 875.991 218.778 876.372C218.29 876.747 217.952 877.165 217.764 877.625L215.369 877.08C215.653 876.284 216.068 875.642 216.614 875.153C217.165 874.659 217.798 874.301 218.514 874.08C219.23 873.852 219.983 873.739 220.773 873.739C221.295 873.739 221.849 873.801 222.435 873.926C223.026 874.045 223.577 874.267 224.088 874.591C224.605 874.915 225.028 875.378 225.358 875.98C225.687 876.577 225.852 877.352 225.852 878.307V887H223.364V885.21H223.261C223.097 885.54 222.849 885.864 222.52 886.182C222.19 886.5 221.767 886.764 221.25 886.974C220.733 887.185 220.114 887.29 219.392 887.29ZM219.946 885.244C220.651 885.244 221.253 885.105 221.753 884.827C222.259 884.548 222.642 884.185 222.903 883.736C223.17 883.281 223.304 882.795 223.304 882.278V880.591C223.213 880.682 223.037 880.767 222.776 880.847C222.52 880.92 222.227 880.986 221.898 881.043C221.568 881.094 221.247 881.142 220.935 881.188C220.622 881.227 220.361 881.261 220.151 881.29C219.656 881.352 219.205 881.457 218.795 881.605C218.392 881.753 218.068 881.966 217.824 882.244C217.585 882.517 217.466 882.881 217.466 883.335C217.466 883.966 217.699 884.443 218.165 884.767C218.631 885.085 219.224 885.244 219.946 885.244ZM234.901 873.909V875.955H227.503V873.909H234.901ZM229.531 887V872.392C229.531 871.574 229.71 870.895 230.068 870.355C230.426 869.81 230.901 869.403 231.491 869.136C232.082 868.864 232.724 868.727 233.418 868.727C233.929 868.727 234.366 868.77 234.73 868.855C235.094 868.935 235.364 869.009 235.54 869.077L234.943 871.139C234.824 871.105 234.67 871.065 234.483 871.02C234.295 870.969 234.068 870.943 233.801 870.943C233.182 870.943 232.739 871.097 232.472 871.403C232.21 871.71 232.08 872.153 232.08 872.733V887H229.531ZM240.365 887.29C239.535 887.29 238.785 887.136 238.115 886.83C237.445 886.517 236.913 886.065 236.521 885.474C236.135 884.884 235.942 884.159 235.942 883.301C235.942 882.562 236.084 881.955 236.368 881.477C236.652 881 237.035 880.622 237.518 880.344C238.001 880.065 238.541 879.855 239.138 879.713C239.734 879.571 240.342 879.463 240.962 879.389C241.746 879.298 242.382 879.224 242.871 879.168C243.359 879.105 243.714 879.006 243.936 878.869C244.158 878.733 244.268 878.511 244.268 878.205V878.145C244.268 877.401 244.058 876.824 243.638 876.415C243.223 876.006 242.604 875.801 241.78 875.801C240.922 875.801 240.246 875.991 239.751 876.372C239.263 876.747 238.925 877.165 238.737 877.625L236.342 877.08C236.626 876.284 237.041 875.642 237.587 875.153C238.138 874.659 238.771 874.301 239.487 874.08C240.203 873.852 240.956 873.739 241.746 873.739C242.268 873.739 242.822 873.801 243.408 873.926C243.999 874.045 244.55 874.267 245.061 874.591C245.578 874.915 246.001 875.378 246.331 875.98C246.66 876.577 246.825 877.352 246.825 878.307V887H244.337V885.21H244.234C244.07 885.54 243.822 885.864 243.493 886.182C243.163 886.5 242.74 886.764 242.223 886.974C241.706 887.185 241.087 887.29 240.365 887.29ZM240.919 885.244C241.624 885.244 242.226 885.105 242.726 884.827C243.232 884.548 243.615 884.185 243.876 883.736C244.143 883.281 244.277 882.795 244.277 882.278V880.591C244.186 880.682 244.01 880.767 243.749 880.847C243.493 880.92 243.2 880.986 242.871 881.043C242.541 881.094 242.22 881.142 241.908 881.188C241.595 881.227 241.334 881.261 241.124 881.29C240.629 881.352 240.178 881.457 239.768 881.605C239.365 881.753 239.041 881.966 238.797 882.244C238.558 882.517 238.439 882.881 238.439 883.335C238.439 883.966 238.672 884.443 239.138 884.767C239.604 885.085 240.197 885.244 240.919 885.244ZM249.643 887V873.909H252.107V875.989H252.243C252.482 875.284 252.902 874.73 253.504 874.327C254.112 873.918 254.8 873.713 255.567 873.713C255.726 873.713 255.913 873.719 256.129 873.73C256.351 873.741 256.524 873.756 256.649 873.773V876.21C256.547 876.182 256.365 876.151 256.104 876.116C255.842 876.077 255.581 876.057 255.32 876.057C254.717 876.057 254.18 876.185 253.709 876.44C253.243 876.69 252.874 877.04 252.601 877.489C252.328 877.932 252.192 878.437 252.192 879.006V887H249.643ZM258.278 887V873.909H260.827V887H258.278ZM259.565 871.889C259.122 871.889 258.741 871.741 258.423 871.446C258.111 871.145 257.955 870.787 257.955 870.372C257.955 869.952 258.111 869.594 258.423 869.298C258.741 868.997 259.122 868.847 259.565 868.847C260.008 868.847 260.386 868.997 260.699 869.298C261.017 869.594 261.176 869.952 261.176 870.372C261.176 870.787 261.017 871.145 260.699 871.446C260.386 871.741 260.008 871.889 259.565 871.889Z" fill="black"/>
<path d="M626.335 887L621.494 869.545H624.264L627.665 883.062H627.827L631.364 869.545H634.108L637.645 883.071H637.807L641.199 869.545H643.977L639.128 887H636.477L632.804 873.926H632.668L628.994 887H626.335ZM649.951 887.264C648.661 887.264 647.55 886.989 646.619 886.438C645.692 885.881 644.977 885.099 644.471 884.094C643.971 883.082 643.721 881.898 643.721 880.54C643.721 879.199 643.971 878.017 644.471 876.994C644.977 875.972 645.681 875.173 646.585 874.599C647.494 874.026 648.556 873.739 649.772 873.739C650.511 873.739 651.227 873.861 651.92 874.105C652.613 874.349 653.235 874.733 653.786 875.256C654.337 875.778 654.772 876.457 655.09 877.293C655.408 878.122 655.567 879.131 655.567 880.318V881.222H645.161V879.312H653.07C653.07 878.642 652.934 878.048 652.661 877.531C652.388 877.009 652.005 876.597 651.511 876.295C651.022 875.994 650.448 875.844 649.789 875.844C649.073 875.844 648.448 876.02 647.914 876.372C647.386 876.719 646.977 877.173 646.687 877.736C646.403 878.293 646.261 878.898 646.261 879.551V881.043C646.261 881.918 646.414 882.662 646.721 883.276C647.033 883.889 647.468 884.358 648.025 884.682C648.582 885 649.232 885.159 649.977 885.159C650.46 885.159 650.9 885.091 651.298 884.955C651.695 884.812 652.039 884.602 652.329 884.324C652.619 884.045 652.84 883.702 652.994 883.293L655.406 883.727C655.212 884.437 654.866 885.06 654.366 885.594C653.871 886.122 653.249 886.534 652.499 886.83C651.755 887.119 650.906 887.264 649.951 887.264ZM658.023 887V869.545H660.572V876.031H660.725C660.873 875.759 661.086 875.443 661.364 875.085C661.643 874.727 662.029 874.415 662.523 874.148C663.018 873.875 663.671 873.739 664.484 873.739C665.54 873.739 666.484 874.006 667.313 874.54C668.143 875.074 668.793 875.844 669.265 876.849C669.742 877.855 669.981 879.065 669.981 880.48C669.981 881.895 669.745 883.108 669.273 884.119C668.802 885.125 668.154 885.901 667.33 886.446C666.506 886.986 665.566 887.256 664.509 887.256C663.714 887.256 663.063 887.122 662.558 886.855C662.058 886.588 661.665 886.276 661.381 885.918C661.097 885.56 660.879 885.241 660.725 884.963H660.512V887H658.023ZM660.521 880.455C660.521 881.375 660.654 882.182 660.921 882.875C661.188 883.568 661.575 884.111 662.08 884.503C662.586 884.889 663.205 885.082 663.938 885.082C664.7 885.082 665.336 884.881 665.847 884.477C666.359 884.068 666.745 883.514 667.006 882.815C667.273 882.116 667.407 881.33 667.407 880.455C667.407 879.591 667.276 878.815 667.015 878.128C666.759 877.44 666.373 876.898 665.856 876.5C665.344 876.102 664.705 875.903 663.938 875.903C663.2 875.903 662.575 876.094 662.063 876.474C661.558 876.855 661.174 877.386 660.913 878.068C660.651 878.75 660.521 879.545 660.521 880.455ZM673.125 887H670.33L676.611 869.545H679.653L685.935 887H683.139L678.205 872.716H678.068L673.125 887ZM673.594 880.165H682.662V882.381H673.594V880.165ZM687.675 891.909V873.909H690.163V876.031H690.376C690.524 875.759 690.737 875.443 691.016 875.085C691.294 874.727 691.68 874.415 692.175 874.148C692.669 873.875 693.322 873.739 694.135 873.739C695.192 873.739 696.135 874.006 696.964 874.54C697.794 875.074 698.445 875.844 698.916 876.849C699.393 877.855 699.632 879.065 699.632 880.48C699.632 881.895 699.396 883.108 698.925 884.119C698.453 885.125 697.805 885.901 696.982 886.446C696.158 886.986 695.217 887.256 694.16 887.256C693.365 887.256 692.714 887.122 692.209 886.855C691.709 886.588 691.317 886.276 691.033 885.918C690.749 885.56 690.53 885.241 690.376 884.963H690.223V891.909H687.675ZM690.172 880.455C690.172 881.375 690.305 882.182 690.572 882.875C690.839 883.568 691.226 884.111 691.732 884.503C692.237 884.889 692.857 885.082 693.589 885.082C694.351 885.082 694.987 884.881 695.499 884.477C696.01 884.068 696.396 883.514 696.658 882.815C696.925 882.116 697.058 881.33 697.058 880.455C697.058 879.591 696.928 878.815 696.666 878.128C696.41 877.44 696.024 876.898 695.507 876.5C694.996 876.102 694.357 875.903 693.589 875.903C692.851 875.903 692.226 876.094 691.714 876.474C691.209 876.855 690.825 877.386 690.564 878.068C690.303 878.75 690.172 879.545 690.172 880.455ZM701.911 891.909V873.909H704.4V876.031H704.613C704.761 875.759 704.974 875.443 705.252 875.085C705.531 874.727 705.917 874.415 706.411 874.148C706.906 873.875 707.559 873.739 708.371 873.739C709.428 873.739 710.371 874.006 711.201 874.54C712.031 875.074 712.681 875.844 713.153 876.849C713.63 877.855 713.869 879.065 713.869 880.48C713.869 881.895 713.633 883.108 713.161 884.119C712.69 885.125 712.042 885.901 711.218 886.446C710.394 886.986 709.454 887.256 708.397 887.256C707.602 887.256 706.951 887.122 706.445 886.855C705.945 886.588 705.553 886.276 705.269 885.918C704.985 885.56 704.766 885.241 704.613 884.963H704.459V891.909H701.911ZM704.408 880.455C704.408 881.375 704.542 882.182 704.809 882.875C705.076 883.568 705.462 884.111 705.968 884.503C706.474 884.889 707.093 885.082 707.826 885.082C708.587 885.082 709.224 884.881 709.735 884.477C710.246 884.068 710.633 883.514 710.894 882.815C711.161 882.116 711.295 881.33 711.295 880.455C711.295 879.591 711.164 878.815 710.903 878.128C710.647 877.44 710.261 876.898 709.744 876.5C709.232 876.102 708.593 875.903 707.826 875.903C707.087 875.903 706.462 876.094 705.951 876.474C705.445 876.855 705.062 877.386 704.8 878.068C704.539 878.75 704.408 879.545 704.408 880.455Z" fill="black"/>
<defs>
<filter id="filter0_d_5_127" x="40" y="44" width="383" height="820" filterUnits="userSpaceOnUse" color-interpolation-filters="sRGB">
<feFlood flood-opacity="0" result="BackgroundImageFix"/>
<feColorMatrix in="SourceAlpha" type="matrix" values="0 0 0 0 0 0 0 0 0 0 0 0 0 0 0 0 0 0 127 0" result="hardAlpha"/>
<feOffset dy="4"/>
<feGaussianBlur stdDeviation="2"/>
<feComposite in2="hardAlpha" operator="out"/>
<feColorMatrix type="matrix" values="0 0 0 0 0 0 0 0 0 0 0 0 0 0 0 0 0 0 0.25 0"/>
<feBlend mode="normal" in2="BackgroundImageFix" result="effect1_dropShadow_5_127"/>
<feBlend mode="normal" in="SourceGraphic" in2="effect1_dropShadow_5_127" result="shape"/>
</filter>
<filter id="filter1_b_5_127" x="-15.8" y="663.2" width="494.6" height="252.6" filterUnits="userSpaceOnUse" color-interpolation-filters="sRGB">
<feFlood flood-opacity="0" result="BackgroundImageFix"/>
<feGaussianBlur in="BackgroundImageFix" stdDeviation="29.9"/>
<feComposite in2="SourceAlpha" operator="in" result="effect1_backgroundBlur_5_127"/>
<feBlend mode="normal" in="SourceGraphic" in2="effect1_backgroundBlur_5_127" result="shape"/>
</filter>
<filter id="filter2_bd_5_127" x="-4" y="683" width="110" height="140" filterUnits="userSpaceOnUse" color-interpolation-filters="sRGB">
<feFlood flood-opacity="0" result="BackgroundImageFix"/>
<feGaussianBlur in="BackgroundImageFix" stdDeviation="24"/>
<feComposite in2="SourceAlpha" operator="in" result="effect1_backgroundBlur_5_127"/>
<feColorMatrix in="SourceAlpha" type="matrix" values="0 0 0 0 0 0 0 0 0 0 0 0 0 0 0 0 0 0 127 0" result="hardAlpha"/>
<feOffset/>
<feGaussianBlur stdDeviation="16"/>
<feColorMatrix type="matrix" values="0 0 0 0 0 0 0 0 0 0 0 0 0 0 0 0 0 0 0.19 0"/>
<feBlend mode="normal" in2="effect1_backgroundBlur_5_127" result="effect2_dropShadow_5_127"/>
<feBlend mode="normal" in="SourceGraphic" in2="effect2_dropShadow_5_127" result="shape"/>
</filter>
<filter id="filter3_bd_5_127" x="18" y="683" width="427" height="140" filterUnits="userSpaceOnUse" color-interpolation-filters="sRGB">
<feFlood flood-opacity="0" result="BackgroundImageFix"/>
<feGaussianBlur in="BackgroundImageFix" stdDeviation="24"/>
<feComposite in2="SourceAlpha" operator="in" result="effect1_backgroundBlur_5_127"/>
<feColorMatrix in="SourceAlpha" type="matrix" values="0 0 0 0 0 0 0 0 0 0 0 0 0 0 0 0 0 0 127 0" result="hardAlpha"/>
<feOffset/>
<feGaussianBlur stdDeviation="16"/>
<feColorMatrix type="matrix" values="0 0 0 0 0 0 0 0 0 0 0 0 0 0 0 0 0 0 0.19 0"/>
<feBlend mode="normal" in2="effect1_backgroundBlur_5_127" result="effect2_dropShadow_5_127"/>
<feBlend mode="normal" in="SourceGraphic" in2="effect2_dropShadow_5_127" result="shape"/>
</filter>
<filter id="filter4_d_5_127" x="477" y="44" width="383" height="820" filterUnits="userSpaceOnUse" color-interpolation-filters="sRGB">
<feFlood flood-opacity="0" result="BackgroundImageFix"/>
<feColorMatrix in="SourceAlpha" type="matrix" values="0 0 0 0 0 0 0 0 0 0 0 0 0 0 0 0 0 0 127 0" result="hardAlpha"/>
<feOffset dy="4"/>
<feGaussianBlur stdDeviation="2"/>
<feComposite in2="hardAlpha" operator="out"/>
<feColorMatrix type="matrix" values="0 0 0 0 0 0 0 0 0 0 0 0 0 0 0 0 0 0 0.25 0"/>
<feBlend mode="normal" in2="BackgroundImageFix" result="effect1_dropShadow_5_127"/>
<feBlend mode="normal" in="SourceGraphic" in2="effect1_dropShadow_5_127" result="shape"/>
</filter>
<clipPath id="clip0_5_127">
<rect width="375" height="812" fill="white" transform="translate(44 44)"/>
</clipPath>
<clipPath id="clip1_5_127">
<rect width="375" height="812" fill="white" transform="translate(481 44)"/>
</clipPath>
</defs>
</svg>
